<svg width="76" height="75" viewBox="0 0 76 75" fill="none" xmlns="http://www.w3.org/2000/svg">
<g clip-path="url(#clip0_9_88)">
<path d="M24.8837 28.2291L25.2775 28.7445L25.7512 28.3016L25.7644 28.2893C25.9532 28.1127 26.1079 27.968 26.2436 27.8206C27.9313 26.0519 30.0224 25.2917 32.6002 25.3988L32.6027 25.399C36.3515 25.5385 39.1723 28.6337 40.0486 31.2872C40.9062 33.8843 40.3283 36.1804 38.6617 38.4013C36.6039 41.1392 34.042 43.4639 31.2756 45.6004L31.2742 45.6015C30.1174 46.5005 28.9279 47.3499 27.7288 48.2062C27.2 48.5839 26.6693 48.9629 26.1388 49.348C25.7998 49.5894 25.5859 49.658 25.4267 49.6626C25.2727 49.6671 25.0717 49.6145 24.7516 49.3961L24.748 49.3937C20.823 46.7591 17.0882 43.9364 13.9413 40.529C12.9962 39.498 12.1282 38.3547 11.3781 37.1736L11.3762 37.1707C9.89751 34.8723 10.0237 32.5146 11.2815 30.0905C11.9284 28.8629 12.6822 27.7871 13.8022 27.0147L13.8079 27.0107C15.9986 25.4612 18.3837 24.9567 21.0292 25.6987C22.4757 26.1026 23.6934 26.873 24.6707 27.9625L24.688 27.9817L24.7068 27.9992C24.7258 28.0171 24.7349 28.0295 24.766 28.0719C24.789 28.1032 24.8239 28.1509 24.8837 28.2291Z" stroke="black" stroke-width="1.1743"/>
<path d="M49.3483 28.2291L49.742 28.7445L50.2158 28.3016L50.2289 28.2893C50.4178 28.1127 50.5725 27.968 50.7082 27.8206C52.3959 26.0519 54.4869 25.2917 57.0647 25.3988L57.0673 25.399C60.816 25.5385 63.6369 28.6337 64.5131 31.2872C65.3707 33.8843 64.7928 36.1804 63.1262 38.4013C61.0684 41.1392 58.5065 43.4639 55.7401 45.6004L55.7387 45.6015C54.582 46.5005 53.3925 47.3499 52.1934 48.2062C51.6646 48.5839 51.1339 48.9629 50.6033 49.348C50.2644 49.5894 50.0504 49.658 49.8913 49.6626C49.7373 49.6671 49.5363 49.6145 49.2162 49.3961L49.2125 49.3937C45.2875 46.7591 41.5528 43.9364 38.4058 40.529C37.4608 39.498 36.5927 38.3547 35.8426 37.1736L35.8408 37.1707C34.362 34.8723 34.4882 32.5146 35.746 30.0905C36.3929 28.8629 37.1467 27.7871 38.2668 27.0147L38.2724 27.0107C40.4632 25.4612 42.8482 24.9567 45.4937 25.6987C46.9402 26.1026 48.1579 26.873 49.1353 27.9625L49.1525 27.9817L49.1713 27.9992C49.1904 28.0171 49.1995 28.0295 49.2306 28.0719C49.2535 28.1032 49.2885 28.1509 49.3483 28.2291Z" stroke="black" stroke-width="1.1743"/>
</g>
<defs>
<clipPath id="clip0_9_88">
<rect width="75" height="75" fill="white" transform="translate(0.47998)"/>
</clipPath>
</defs>
</svg>
