<svg width="32" height="32" viewBox="0 0 32 32" fill="none" xmlns="http://www.w3.org/2000/svg">
<rect x="0.5" y="0.5" width="31" height="31" rx="15.5" stroke="white"/>
<g filter="url(#filter0_d_10_399)">
<path d="M11.6989 9.85575V21H8.98425V9.85575H11.6989ZM21.3839 13.38C21.1828 13.0096 20.8918 12.7291 20.5108 12.5386C20.1403 12.3375 19.7011 12.237 19.1931 12.237C18.3147 12.237 17.6109 12.528 17.0818 13.1101C16.5526 13.6816 16.288 14.4489 16.288 15.412C16.288 16.4386 16.5632 17.2429 17.1135 17.825C17.6744 18.3965 18.4417 18.6822 19.4154 18.6822C20.0821 18.6822 20.6431 18.5129 21.0981 18.1742C21.5638 17.8356 21.9025 17.3487 22.1141 16.7137H18.6693V14.7135H24.5748V17.2376C24.3737 17.915 24.0297 18.5447 23.5429 19.1267C23.0666 19.7088 22.4581 20.1798 21.7173 20.5396C20.9764 20.8995 20.1403 21.0794 19.209 21.0794C18.1083 21.0794 17.1241 20.8412 16.2563 20.365C15.399 19.8782 14.727 19.2061 14.2401 18.3489C13.7639 17.4916 13.5258 16.5127 13.5258 15.412C13.5258 14.3113 13.7639 13.3324 14.2401 12.4751C14.727 11.6073 15.399 10.9352 16.2563 10.459C17.1135 9.97217 18.0925 9.72875 19.1931 9.72875C20.5266 9.72875 21.6485 10.0515 22.5586 10.6971C23.4794 11.3427 24.0879 12.237 24.3843 13.38H21.3839Z" fill="white"/>
</g>
<defs>
<filter id="filter0_d_10_399" x="8.98425" y="9.72876" width="17.5905" height="13.3506" filterUnits="userSpaceOnUse" color-interpolation-filters="sRGB">
<feFlood flood-opacity="0" result="BackgroundImageFix"/>
<feColorMatrix in="SourceAlpha" type="matrix" values="0 0 0 0 0 0 0 0 0 0 0 0 0 0 0 0 0 0 127 0" result="hardAlpha"/>
<feOffset dx="1" dy="1"/>
<feGaussianBlur stdDeviation="0.5"/>
<feComposite in2="hardAlpha" operator="out"/>
<feColorMatrix type="matrix" values="0 0 0 0 0 0 0 0 0 0 0 0 0 0 0 0 0 0 0.01 0"/>
<feBlend mode="normal" in2="BackgroundImageFix" result="effect1_dropShadow_10_399"/>
<feBlend mode="normal" in="SourceGraphic" in2="effect1_dropShadow_10_399" result="shape"/>
</filter>
</defs>
</svg>
