<svg width="76" height="75" viewBox="0 0 76 75" fill="none" xmlns="http://www.w3.org/2000/svg">
<path d="M52.3991 36.4135C52.7281 36.1503 52.9913 35.8213 53.2545 35.4923L53.3861 35.3607C55.0311 33.5183 55.0311 32.1364 53.5177 30.2282C53.0571 29.636 52.4649 29.0438 52.0043 28.5832C51.1489 27.7278 50.7541 26.8066 50.6883 25.6222C50.6883 25.2932 50.6883 24.9642 50.6883 24.6352C50.6883 24.2404 50.6883 23.8456 50.6883 23.4508C50.6225 21.1477 49.5039 20.0291 47.2009 19.8317C46.2797 19.7659 45.4242 19.7002 44.6346 19.7002C43.6476 19.6343 42.7922 19.3711 42.2 18.7131C42.0684 18.5815 41.871 18.4499 41.7394 18.2525C41.3446 17.8577 40.884 17.4629 40.4892 17.0681C38.7784 15.5547 37.3965 15.3573 35.8831 16.4101C35.2909 16.8049 34.6987 17.3971 34.1723 17.8577L34.1065 17.9235C33.2511 18.7789 32.1325 19.6343 30.4874 19.6343C30.4217 19.6343 30.3559 19.6343 30.2243 19.6343C29.303 19.5685 28.316 19.7002 27.3948 19.8976C26.013 20.095 25.0918 20.9503 24.8944 22.398C24.7628 23.2534 24.697 24.2404 24.697 25.1616C24.697 26.1486 24.4996 27.3988 23.4468 28.4516C22.8546 29.0438 22.2623 29.7019 21.6044 30.4915C20.4857 31.8733 20.4857 33.1893 21.4727 34.6369C21.8675 35.1633 22.3282 35.6897 22.8546 36.2161C24.2364 37.5322 24.8286 38.9797 24.697 40.6248C24.6312 41.0196 24.697 41.4802 24.697 41.875C24.8286 43.3226 25.2234 44.9018 27.1316 45.4282C27.329 45.494 27.4607 45.5598 27.5264 45.6914C27.6581 45.8888 27.5922 46.0862 27.5264 46.2836V46.3495C27.2633 47.4022 26.9342 48.5209 26.671 49.5736L25.8814 52.4689C25.6182 53.5217 25.2892 54.6403 25.026 55.6931C24.8944 56.1538 24.8944 56.4827 25.026 56.6801C25.0918 56.8117 25.2892 56.8775 25.5524 56.8775C25.7498 56.8775 26.6052 56.4827 27.329 56.2195C28.0529 55.8905 28.7108 55.6273 28.9082 55.6273C29.0399 55.6273 29.303 55.9564 30.0926 57.0091C30.5533 57.6013 31.0796 58.3252 31.2113 58.3909C31.3429 58.4568 31.4745 58.4568 31.6061 58.4568C31.8035 58.3909 32.0009 58.1278 32.0667 57.8646C32.4615 56.3512 32.7905 54.9693 33.1853 53.5217C33.5143 52.3373 33.8433 51.2187 34.1723 49.9684L34.6329 48.1918L34.7645 48.2576C36.6069 49.9684 38.3177 50.0343 40.0943 48.5866L40.1602 48.5209L40.555 49.9027C40.884 51.1529 41.213 52.3373 41.542 53.5217C41.9368 54.9693 42.2658 56.3512 42.6606 57.8646C42.7264 58.1278 42.9238 58.3909 43.1212 58.4568C43.2528 58.5226 43.3844 58.5226 43.516 58.3909C43.7134 58.3252 44.174 57.6013 44.6346 57.0091C45.4242 55.9564 45.6875 55.6273 45.819 55.6273C46.0164 55.6273 46.6745 55.8905 47.3983 56.2195C48.122 56.4827 49.0433 56.8775 49.1749 56.8775C49.4381 56.8775 49.5697 56.8117 49.7013 56.6801C49.8329 56.4827 49.8329 56.1538 49.7013 55.6931C49.4381 54.6403 49.109 53.6533 48.8459 52.6005L48.0563 49.5736C47.7931 48.5209 47.4641 47.468 47.2009 46.3495V46.2836C47.135 46.0204 47.0034 45.6256 47.5298 45.4282L48.2537 45.3624C49.4381 45.0334 50.1619 44.3096 50.2935 43.1252C50.4251 42.204 50.4909 41.3485 50.4909 40.4932C50.6883 38.7823 51.2147 37.4663 52.3991 36.4135ZM33.7775 47.3365C33.7117 47.5996 33.6459 47.9287 33.5801 48.1918C33.4485 48.784 33.3169 49.3105 33.1853 49.8369C32.9879 50.6265 32.7247 51.4161 32.5273 52.2715C32.1325 53.6533 31.7377 55.1009 31.4087 56.5486C31.4087 56.6143 31.3429 56.6801 31.277 56.6801C31.1455 56.6801 30.8822 56.4169 30.4217 55.8905C30.0269 55.4299 29.5004 54.7719 29.2373 54.7061C28.974 54.6403 28.316 54.9035 27.7238 55.1009C26.8684 55.4299 26.5394 55.4957 26.4078 55.3642C26.4078 55.3642 26.342 55.2983 26.342 55.1668C26.671 53.9165 27 52.6663 27.329 51.4161C27.5264 50.7581 27.6581 50.1658 27.8555 49.5079C28.1186 48.4551 28.4477 47.2706 28.7766 46.0862C28.8425 45.8888 29.0399 45.5598 29.2373 45.5598C29.5004 45.5598 29.8295 45.6256 30.0926 45.6256C31.2113 45.6914 32.3299 45.6914 33.1853 46.6126C33.3169 46.7443 33.4485 46.9417 33.5801 47.0732C33.6459 47.1391 33.7117 47.2048 33.7117 47.2706L33.7775 47.3365ZM47.6615 51.4161C47.9905 52.6663 48.3194 53.9165 48.6485 55.1668C48.6485 55.2325 48.6485 55.2983 48.5827 55.3642C48.4511 55.4957 48.122 55.3642 47.2667 55.1009C46.6745 54.9035 46.0164 54.6403 45.7532 54.7061C45.4242 54.7719 44.9636 55.4299 44.5688 55.8905C44.1082 56.4169 43.9108 56.6801 43.7134 56.6801C43.7134 56.6801 43.6476 56.6801 43.5818 56.5486C43.187 55.1009 42.7922 53.6533 42.4632 52.2715C42.2658 51.4819 42.0026 50.6923 41.8052 49.8369C41.6736 49.3105 41.542 48.784 41.4104 48.1918L41.2788 47.5996L41.871 47.0732C42.529 46.4152 43.3844 46.0862 43.9766 45.823C44.5688 45.6256 45.7532 45.6256 45.7532 45.6256C45.9506 45.6256 46.148 45.9546 46.2138 46.152C46.5428 47.2706 46.8719 48.5209 47.135 49.5736C47.3324 50.1658 47.4641 50.8239 47.6615 51.4161ZM49.6355 40.4932C49.6355 41.0196 49.6355 41.5459 49.5697 42.2698C49.4381 43.9806 48.3853 44.836 46.6086 44.7044C45.7532 44.6386 44.832 44.7044 43.7134 44.836C42.5948 44.9676 41.7394 45.6914 41.0156 46.3495C40.4892 46.81 39.8969 47.4022 39.239 47.9287C38.7125 48.3235 38.252 48.5209 37.7255 48.5209C37.1991 48.5209 36.7385 48.3235 36.2121 47.9287C35.6857 47.468 35.1593 47.0074 34.6987 46.6126C34.3697 46.2836 33.9749 45.9546 33.6459 45.6914C32.9221 45.0992 32.0667 44.7702 30.8822 44.7044C29.5663 44.6386 28.5792 44.5728 27.6581 44.4412C26.671 44.2438 26.1446 43.7174 26.013 42.9278L25.9472 42.5988C25.8156 41.9408 25.7498 41.2828 25.7498 40.6248C25.8814 38.5849 25.0918 36.8741 23.4468 35.3607C23.052 35.0317 22.723 34.5711 22.2623 34.0447C21.5386 33.1235 21.5386 32.3338 22.2623 31.4127C22.8546 30.623 23.5126 29.8993 24.1706 29.2412C25.1576 28.1884 25.684 26.9382 25.7498 25.2274C25.7498 24.3062 25.8814 23.3191 26.013 22.3321C26.1446 21.6083 26.671 21.082 27.4607 20.9503C28.3818 20.8187 29.5004 20.6872 30.5533 20.6872C31.8693 20.6872 32.9879 20.2265 34.0407 19.3053C34.2381 19.1079 34.4355 18.9763 34.6329 18.7789C35.1593 18.3183 35.6857 17.7919 36.278 17.3313C37.1333 16.6075 38.0546 16.6075 38.9758 17.3313L39.0416 17.3971C39.5021 17.7261 39.9628 18.0551 40.3576 18.5157C41.7394 20.1607 43.5818 20.8846 45.8849 20.8187C46.4771 20.8187 47.0034 20.8846 47.6615 20.9503C48.7801 21.1477 49.3723 21.7399 49.4381 22.8586C49.5039 23.6482 49.5697 24.5036 49.5697 25.5564C49.5697 27.004 50.2277 28.32 51.4121 29.5045C52.0043 30.0967 52.5307 30.7546 53.0571 31.4127C53.2545 31.6101 53.3203 31.8733 53.4519 32.2023C53.5177 32.3338 53.5835 32.5312 53.6493 32.6629V32.7286V32.7945C53.5835 32.9919 53.4519 33.1235 53.3861 33.3209C53.1887 33.7157 52.9255 34.1105 52.6623 34.5053C52.3991 34.9001 52.0701 35.2949 51.6095 35.6897C50.2277 36.8083 49.5697 38.4533 49.6355 40.4932Z" fill="black"/>
<path d="M37.594 21.3451C34.5671 21.3451 31.6719 22.5953 29.5663 24.7667C27.5264 26.8724 26.342 29.7018 26.4078 32.5312C26.4078 35.558 27.5922 38.5191 29.6978 40.6247C31.8035 42.7304 34.6329 43.8489 37.7255 43.8489C37.7914 43.8489 37.7914 43.8489 37.8572 43.8489C40.7524 43.8489 43.6476 42.533 45.7532 40.3615C47.7931 38.2559 48.9775 35.3606 48.9117 32.5312C48.8459 26.2143 43.9109 21.3451 37.594 21.3451ZM44.8979 39.8351C42.9896 41.7433 40.4234 42.7961 37.7914 42.7961H37.7255C34.9619 42.7961 32.3957 41.6775 30.4875 39.7035C28.5793 37.6637 27.5264 35.0316 27.5922 32.1364C27.7238 26.8724 32.3957 22.4637 37.7255 22.4637H37.7914C40.555 22.4637 43.1212 23.5823 45.0294 25.4906C46.9376 27.4646 47.9246 30.0966 47.9246 32.8602C47.8589 35.4923 46.8061 37.9927 44.8979 39.8351Z" fill="black"/>
</svg>
