<svg width="40" height="38" viewBox="0 0 40 38" fill="none" xmlns="http://www.w3.org/2000/svg">
<path fill-rule="evenodd" clip-rule="evenodd" d="M16 22C19.866 22 23 18.866 23 15C23 11.134 19.866 8 16 8C12.134 8 9 11.134 9 15C9 18.866 12.134 22 16 22ZM16 23C20.4183 23 24 19.4183 24 15C24 10.5817 20.4183 7 16 7C11.5817 7 8 10.5817 8 15C8 19.4183 11.5817 23 16 23Z" fill="#121212"/>
<path d="M22.0607 20.3535C21.8654 20.1582 21.5488 20.1582 21.3536 20.3535C21.1583 20.5487 21.1583 20.8653 21.3536 21.0606L29.1317 28.8388C29.327 29.034 29.6436 29.034 29.8388 28.8388C30.0341 28.6435 30.0341 28.3269 29.8388 28.1317L22.0607 20.3535Z" fill="#121212"/>
</svg>
